HIERARCHY
ROOT hips
{
	OFFSET -0.003675 0.299928 -0.021708
	CHANNELS 6 Xposition Yposition Zposition Xrotation Yrotation Zrotation
	JOINT LowerBack
	{
		OFFSET 0.000919 0.177588 0.009275
		CHANNELS 3 Xrotation Yrotation Zrotation
		JOINT spine
		{
			OFFSET 0.000919 0.177588 0.009275
			CHANNELS 3 Xrotation Yrotation Zrotation
			JOINT chest
			{
				OFFSET 0.000456 0.100015 0.004638
				CHANNELS 3 Xrotation Yrotation Zrotation
				JOINT neck
				{
					OFFSET 0.000456 0.100015 0.004638
					CHANNELS 3 Xrotation Yrotation Zrotation
					JOINT head
					{
						OFFSET 0.000924 0.155147 0.009274
						CHANNELS 6 Xposition Yposition Zposition Xrotation Yrotation Zrotation
						End Site
						{
							OFFSET 0.000000 0.153400 0.000000
						}
					}
				}
				JOINT shoulder.L
				{
					OFFSET 0.019937 0.078966 0.057518
					CHANNELS 6 Xposition Yposition Zposition Yrotation Xrotation Zrotation
					JOINT upper_arm.L
					{
						OFFSET 0.177024 -0.020465 -0.095062
						CHANNELS 6 Xposition Yposition Zposition Xrotation Yrotation Zrotation
						JOINT forearm.L
						{
							OFFSET 0.247100 -0.135500 -0.061800
							CHANNELS 3 Xrotation Yrotation Zrotation
							JOINT hand.L
							{
								OFFSET 0.217000 -0.143000 0.039300
								CHANNELS 3 Xrotation Yrotation Zrotation
								JOINT palm.01.L
								{
									OFFSET 0.021770 -0.038291 0.012954
									CHANNELS 6 Xposition Yposition Zposition Yrotation Xrotation Zrotation
									JOINT f_index.01.L
									{
										OFFSET 0.053215 -0.044137 0.008236
										CHANNELS 3 Xrotation Yrotation Zrotation
										JOINT f_index.02.L
										{
											OFFSET 0.036108 -0.024723 -0.010656
											CHANNELS 3 Xrotation Yrotation Zrotation
											JOINT f_index.03.L
											{
												OFFSET 0.021342 -0.014948 -0.010846
												CHANNELS 3 Xrotation Yrotation Zrotation
												End Site
												{
													OFFSET 0.015600 -0.009860 -0.013421
												}
											}
										}
									}
									JOINT thumb.01.L
									{
										OFFSET -0.009090 -0.002348 -0.024223
										CHANNELS 6 Xposition Yposition Zposition Xrotation Yrotation Zrotation
										JOINT thumb.02.L
										{
											OFFSET 0.019713 -0.035076 -0.011120
											CHANNELS 3 Xrotation Yrotation Zrotation
											JOINT thumb.03.L
											{
												OFFSET 0.024877 -0.021748 -0.005176
												CHANNELS 3 Xrotation Yrotation Zrotation
												End Site
												{
													OFFSET 0.016125 -0.013029 -0.001569
												}
											}
										}
									}
								}
								JOINT palm.02.L
								{
									OFFSET 0.032823 -0.025104 0.012281
									CHANNELS 6 Xposition Yposition Zposition Yrotation Xrotation Zrotation
									JOINT f_middle.01.L
									{
										OFFSET 0.055723 -0.038469 0.008037
										CHANNELS 3 Xrotation Yrotation Zrotation
										JOINT f_middle.02.L
										{
											OFFSET 0.038167 -0.027473 -0.015582
											CHANNELS 3 Xrotation Yrotation Zrotation
											JOINT f_middle.03.L
											{
												OFFSET 0.021707 -0.016587 -0.017037
												CHANNELS 3 Xrotation Yrotation Zrotation
												End Site
												{
													OFFSET 0.014112 -0.010584 -0.014294
												}
											}
										}
									}
								}
								JOINT palm.03.L
								{
									OFFSET 0.039230 -0.011402 0.008390
									CHANNELS 6 Xposition Yposition Zposition Yrotation Xrotation Zrotation
									JOINT f_ring.01.L
									{
										OFFSET 0.061796 -0.031470 0.007910
										CHANNELS 3 Xrotation Yrotation Zrotation
										JOINT f_ring.02.L
										{
											OFFSET 0.033092 -0.023401 -0.019127
											CHANNELS 3 Xrotation Yrotation Zrotation
											JOINT f_ring.03.L
											{
												OFFSET 0.021392 -0.015362 -0.017824
												CHANNELS 3 Xrotation Yrotation Zrotation
												End Site
												{
													OFFSET 0.008670 -0.007297 -0.014686
												}
											}
										}
									}
								}
								JOINT palm.04.L
								{
									OFFSET 0.043417 0.002450 0.002889
									CHANNELS 6 Xposition Yposition Zposition Yrotation Xrotation Zrotation
									JOINT f_pinky.01.L
									{
										OFFSET 0.069986 -0.026156 0.003627
										CHANNELS 3 Xrotation Yrotation Zrotation
										JOINT f_pinky.02.L
										{
											OFFSET 0.018520 -0.012813 -0.016429
											CHANNELS 3 Xrotation Yrotation Zrotation
											JOINT f_pinky.03.L
											{
												OFFSET 0.013822 -0.009796 -0.014947
												CHANNELS 3 Xrotation Yrotation Zrotation
												End Site
												{
													OFFSET 0.007238 -0.006103 -0.011657
												}
											}
										}
									}
								}
							}
						}
					}
				}
				JOINT shoulder.R
				{
					OFFSET -0.016662 0.078957 0.057696
					CHANNELS 6 Xposition Yposition Zposition Yrotation Xrotation Zrotation
					JOINT upper_arm.R
					{
						OFFSET -0.176972 -0.020537 -0.095144
						CHANNELS 6 Xposition Yposition Zposition Xrotation Yrotation Zrotation
						JOINT forearm.R
						{
							OFFSET -0.247100 -0.135500 -0.061800
							CHANNELS 3 Xrotation Yrotation Zrotation
							JOINT hand.R
							{
								OFFSET -0.217000 -0.143000 0.039300
								CHANNELS 3 Xrotation Yrotation Zrotation
								JOINT palm.01.R
								{
									OFFSET -0.021773 -0.038278 0.012988
									CHANNELS 6 Xposition Yposition Zposition Yrotation Xrotation Zrotation
									JOINT f_index.01.R
									{
										OFFSET -0.053212 -0.044139 0.008249
										CHANNELS 3 Xrotation Yrotation Zrotation
										JOINT f_index.02.R
										{
											OFFSET -0.036049 -0.024835 -0.010634
											CHANNELS 3 Xrotation Yrotation Zrotation
											JOINT f_index.03.R
											{
												OFFSET -0.021371 -0.014881 -0.010866
												CHANNELS 3 Xrotation Yrotation Zrotation
												End Site
												{
													OFFSET -0.015584 -0.009883 -0.013422
												}
											}
										}
									}
									JOINT thumb.01.R
									{
										OFFSET 0.009113 -0.002381 -0.024211
										CHANNELS 6 Xposition Yposition Zposition Xrotation Yrotation Zrotation
										JOINT thumb.02.R
										{
											OFFSET -0.019694 -0.035097 -0.011088
											CHANNELS 3 Xrotation Yrotation Zrotation
											JOINT thumb.03.R
											{
												OFFSET -0.024867 -0.021762 -0.005168
												CHANNELS 3 Xrotation Yrotation Zrotation
												End Site
												{
													OFFSET -0.016120 -0.013036 -0.001565
												}
											}
										}
									}
								}
								JOINT palm.02.R
								{
									OFFSET -0.032828 -0.025095 0.012286
									CHANNELS 6 Xposition Yposition Zposition Yrotation Xrotation Zrotation
									JOINT f_middle.01.R
									{
										OFFSET -0.055721 -0.038472 0.008040
										CHANNELS 3 Xrotation Yrotation Zrotation
										JOINT f_middle.02.R
										{
											OFFSET -0.038101 -0.027593 -0.015557
											CHANNELS 3 Xrotation Yrotation Zrotation
											JOINT f_middle.03.R
											{
												OFFSET -0.021730 -0.016530 -0.017054
												CHANNELS 3 Xrotation Yrotation Zrotation
												End Site
												{
													OFFSET -0.014096 -0.010608 -0.014293
												}
											}
										}
									}
								}
								JOINT palm.03.R
								{
									OFFSET -0.039192 -0.011488 0.008390
									CHANNELS 6 Xposition Yposition Zposition Yrotation Xrotation Zrotation
									JOINT f_ring.01.R
									{
										OFFSET -0.061839 -0.031387 0.007876
										CHANNELS 3 Xrotation Yrotation Zrotation
										JOINT f_ring.02.R
										{
											OFFSET -0.033068 -0.023437 -0.019125
											CHANNELS 3 Xrotation Yrotation Zrotation
											JOINT f_ring.03.R
											{
												OFFSET -0.021371 -0.015393 -0.017822
												CHANNELS 3 Xrotation Yrotation Zrotation
												End Site
												{
													OFFSET -0.008654 -0.007321 -0.014684
												}
											}
										}
									}
								}
								JOINT palm.04.R
								{
									OFFSET -0.043421 0.002443 0.002845
									CHANNELS 6 Xposition Yposition Zposition Yrotation Xrotation Zrotation
									JOINT f_pinky.01.R
									{
										OFFSET -0.069983 -0.026169 0.003599
										CHANNELS 3 Xrotation Yrotation Zrotation
										JOINT f_pinky.02.R
										{
											OFFSET -0.018501 -0.012842 -0.016428
											CHANNELS 3 Xrotation Yrotation Zrotation
											JOINT f_pinky.03.R
											{
												OFFSET -0.013806 -0.009821 -0.014946
												CHANNELS 3 Xrotation Yrotation Zrotation
												End Site
												{
													OFFSET -0.007226 -0.006121 -0.011655
												}
											}
										}
									}
								}
							}
						}
					}
				}
			}
		}
	}
	JOINT pelvis.L
	{
		OFFSET 0.000000 0.000000 0.000000
		CHANNELS 6 Xposition Yposition Zposition Xrotation Yrotation Zrotation
		JOINT thigh.L
		{
			OFFSET 0.101675 0.001054 -0.000000
			CHANNELS 3 Xrotation Yrotation Zrotation
			JOINT shin.L
			{
				OFFSET 0.000000 -0.534800 0.041000
				CHANNELS 3 Xrotation Yrotation Zrotation
				JOINT foot.L
				{
					OFFSET 0.000000 -0.452000 -0.044800
					CHANNELS 3 Xrotation Yrotation Zrotation
					JOINT toe.L
					{
						OFFSET -0.000000 -0.068500 0.109600
						CHANNELS 3 Xrotation Yrotation Zrotation
						End Site
						{
							OFFSET -0.000000 0.000000 0.067200
						}
					}
				}
				JOINT heel.L
				{
					OFFSET 0.000000 -0.452000 -0.044800
					CHANNELS 3 Xrotation Yrotation Zrotation
					JOINT heel.02.L
					{
						OFFSET -0.038000 -0.085200 0.016200
						CHANNELS 6 Xposition Yposition Zposition Xrotation Yrotation Zrotation
						End Site
						{
							OFFSET 0.080000 -0.000000 0.000000
						}
					}
				}
			}
		}
	}
	JOINT pelvis.R
	{
		OFFSET 0.000000 0.000000 0.000000
		CHANNELS 6 Xposition Yposition Zposition Xrotation Yrotation Zrotation
		JOINT thigh.R
		{
			OFFSET -0.094325 0.001054 0.000000
			CHANNELS 3 Xrotation Yrotation Zrotation
			JOINT shin.R
			{
				OFFSET 0.000000 -0.534800 0.041000
				CHANNELS 3 Xrotation Yrotation Zrotation
				JOINT foot.R
				{
					OFFSET 0.000000 -0.452000 -0.044800
					CHANNELS 3 Xrotation Yrotation Zrotation
					JOINT toe.R
					{
						OFFSET -0.000000 -0.068500 0.109600
						CHANNELS 3 Xrotation Yrotation Zrotation
						End Site
						{
							OFFSET -0.000000 0.000000 0.067200
						}
					}
				}
				JOINT heel.R
				{
					OFFSET 0.000000 -0.452000 -0.044800
					CHANNELS 3 Xrotation Yrotation Zrotation
					JOINT heel.02.R
					{
						OFFSET 0.038000 -0.085200 0.016200
						CHANNELS 6 Xposition Yposition Zposition Xrotation Yrotation Zrotation
						End Site
						{
							OFFSET -0.080000 0.000000 -0.000000
						}
					}
				}
			}
		}
	}
}
MOTION
Frames: 4
Frame Time: 0.041667
0.012054 0.271137 -0.027106 81.757153 -26.135516 76.954369 0.000004 0.000000 0.000000 0.000001 0.000001 -0.000001 -0.000002 -0.000000 -0.000001 0.000001 0.000000 -0.000001 0.000924 0.155147 0.009274 11.148166 -0.020299 8.177344 0.019937 0.078966 0.057518 -23.972984 2.078913 37.607725 0.177024 -0.020465 -0.095062 -73.009313 29.092289 -56.686356 1.339358 -0.184821 -10.330688 0.000001 -0.000001 -0.000002 0.021770 -0.038291 0.012954 -0.000001 -0.000000 0.000001 -0.000000 -0.000000 0.000005 0.000000 -0.000000 0.000007 -0.000000 0.000004 -0.000000 -0.009090 -0.002348 -0.024224 -0.000000 -0.000001 0.000006 0.000001 -0.000001 -0.000000 -0.000001 0.000000 0.000003 0.032823 -0.025104 0.012281 -0.000001 0.000002 0.000007 -0.000002 0.000000 0.000002 -0.000002 -0.000002 0.000001 -0.000000 -0.000001 -0.000001 0.039230 -0.011402 0.008390 -0.000001 0.000001 0.000004 -0.000001 -0.000000 -0.000004 0.000001 0.000003 -0.000001 -0.000002 -0.000002 0.000003 0.043417 0.002450 0.002889 -0.000002 -0.000000 -0.000002 0.000000 -0.000003 -0.000002 0.000002 -0.000004 0.000002 -0.000002 -0.000003 0.000001 -0.016662 0.078957 0.057696 -7.502439 2.000753 -29.973715 -0.176972 -0.020537 -0.095144 -54.299621 -20.759110 61.807229 0.806761 2.580076 23.287665 0.000000 0.000001 0.000000 -0.021773 -0.038278 0.012988 -0.000000 -0.000003 -0.000002 -0.000001 0.000003 0.000001 -0.000001 0.000001 -0.000004 -0.000000 0.000000 -0.000002 0.009113 -0.002381 -0.024211 -0.000001 0.000000 0.000003 0.000001 -0.000000 0.000004 0.000001 0.000002 -0.000006 -0.032828 -0.025095 0.012286 0.000001 -0.000000 -0.000001 0.000000 0.000003 0.000001 0.000001 -0.000002 -0.000006 -0.000003 0.000003 -0.000004 -0.039192 -0.011488 0.008390 -0.000001 0.000001 0.000003 -0.000001 0.000003 -0.000003 0.000002 -0.000007 0.000001 -0.000002 0.000002 -0.000002 -0.043421 0.002443 0.002845 -0.000000 0.000000 0.000000 -0.000003 0.000000 0.000001 -0.000001 -0.000004 0.000002 0.000001 0.000001 0.000001 0.000000 0.000000 -0.000000 -2.141754 0.667380 -8.351567 -100.868281 -0.538489 -3.131838 66.644820 0.544146 -5.496463 -0.000002 0.000001 -0.000002 0.000001 0.000002 0.000000 0.000003 0.000001 -0.000000 -0.038000 -0.085200 0.016200 -0.000001 0.000003 -0.000001 -0.000000 0.000000 -0.000000 -2.071764 0.657863 -7.118192 -107.903486 1.084928 9.781396 71.501371 1.745104 -17.900493 -0.000003 0.000002 -0.000003 0.000001 0.000001 -0.000002 0.000005 0.000001 -0.000001 0.038000 -0.085200 0.016200 0.000001 0.000001 -0.000002 
0.011914 0.269978 -0.027377 81.020940 -26.615808 77.559284 0.000001 -0.000000 -0.000000 0.000000 0.000001 -0.000000 -0.000000 0.000000 -0.000001 0.000001 0.000001 -0.000000 0.000924 0.155148 0.009274 11.888200 -0.022003 8.757146 0.019937 0.078966 0.057518 -23.274865 1.808212 37.086817 0.177025 -0.020465 -0.095062 -68.714681 28.878166 -58.993341 1.999396 0.539494 -9.938775 -0.000001 0.000000 0.000003 0.021770 -0.038291 0.012954 0.000001 0.000001 -0.000001 -0.000001 -0.000003 0.000003 0.000001 -0.000000 0.000009 -0.000002 -0.000003 0.000007 -0.009090 -0.002348 -0.024223 -0.000001 -0.000001 -0.000001 0.000000 -0.000000 0.000001 -0.000000 0.000000 0.000001 0.032823 -0.025104 0.012281 -0.000002 -0.000001 0.000002 -0.000000 0.000003 -0.000005 -0.000004 -0.000006 0.000001 -0.000002 -0.000008 0.000002 0.039230 -0.011402 0.008390 -0.000000 -0.000000 -0.000001 0.000001 0.000000 -0.000000 0.000000 0.000005 -0.000001 0.000000 -0.000005 0.000004 0.043417 0.002450 0.002889 0.000000 0.000001 -0.000003 0.000001 -0.000005 -0.000000 0.000001 -0.000006 0.000002 -0.000001 0.000001 -0.000000 -0.016662 0.078956 0.057696 -8.248628 2.158760 -30.229454 -0.176972 -0.020537 -0.095144 -53.013555 -20.418675 62.148574 2.761505 0.948679 21.398129 -0.000001 0.000001 0.000000 -0.021773 -0.038278 0.012988 0.000001 -0.000001 -0.000005 -0.000001 0.000002 -0.000001 -0.000001 -0.000000 -0.000003 0.000002 0.000004 0.000005 0.009114 -0.002381 -0.024212 0.000002 -0.000003 -0.000003 0.000000 -0.000001 0.000000 -0.000001 0.000000 -0.000003 -0.032828 -0.025095 0.012286 0.000002 -0.000000 -0.000003 -0.000000 0.000001 -0.000005 0.000002 0.000003 0.000002 -0.000003 0.000003 -0.000006 -0.039192 -0.011488 0.008390 0.000000 0.000001 0.000003 0.000000 0.000003 -0.000002 0.000003 -0.000001 0.000002 -0.000004 0.000000 -0.000003 -0.043421 0.002443 0.002845 -0.000000 0.000000 0.000002 -0.000004 0.000000 -0.000001 -0.000002 -0.000001 0.000002 -0.000001 0.000005 -0.000002 0.000000 0.000000 -0.000000 -2.153219 0.692436 -8.607361 -99.620857 -0.546919 -3.217413 66.080933 0.494019 -4.988544 0.000002 0.000002 0.000001 -0.000001 -0.000001 0.000001 -0.000002 0.000001 0.000002 -0.038000 -0.085200 0.016200 0.000000 0.000003 0.000000 0.000000 0.000000 -0.000000 -2.081996 0.682413 -7.374030 -107.600792 1.121041 10.248623 70.485660 1.889933 -19.444555 0.000000 0.000001 -0.000002 0.000002 0.000003 0.000002 0.000003 -0.000001 -0.000001 0.038000 -0.085200 0.016200 -0.000001 -0.000003 0.000001 
0.011010 0.269008 -0.027855 78.532279 -26.115976 74.899062 -0.000000 -0.000000 0.000001 0.000002 -0.000000 0.000001 -0.000001 0.000000 -0.000000 -0.000001 -0.000001 0.000002 0.000924 0.155147 0.009274 12.669448 -0.021977 7.303667 0.019937 0.078966 0.057518 -20.605038 1.701788 36.814907 0.177025 -0.020465 -0.095062 -66.471469 31.414454 -62.297233 1.911877 0.392569 -10.340044 -0.000001 -0.000001 0.000003 0.021770 -0.038291 0.012954 0.000001 -0.000000 0.000001 -0.000001 -0.000001 0.000001 -0.000001 0.000001 0.000003 -0.000000 0.000000 -0.000001 -0.009090 -0.002348 -0.024223 -0.000002 -0.000003 -0.000001 -0.000000 0.000002 0.000003 -0.000000 0.000000 -0.000001 0.032823 -0.025104 0.012281 0.000000 -0.000000 0.000005 -0.000000 0.000000 -0.000002 -0.000003 0.000002 -0.000000 -0.000002 0.000001 0.000001 0.039230 -0.011402 0.008390 0.000001 -0.000000 0.000004 0.000003 0.000002 -0.000000 -0.000000 0.000003 -0.000001 0.000003 0.000001 0.000001 0.043417 0.002450 0.002889 0.000000 0.000001 -0.000003 -0.000003 -0.000004 -0.000004 0.000000 0.000001 -0.000003 -0.000001 -0.000006 -0.000002 -0.016662 0.078957 0.057696 -6.056230 1.992100 -30.799321 -0.176972 -0.020537 -0.095144 -52.569292 -23.311752 65.232452 2.923458 0.951546 22.454691 -0.000001 0.000002 0.000003 -0.021773 -0.038278 0.012988 -0.000001 -0.000000 -0.000003 0.000001 0.000001 0.000001 -0.000000 0.000003 -0.000002 -0.000000 -0.000001 -0.000000 0.009114 -0.002381 -0.024212 -0.000002 -0.000001 0.000006 -0.000004 -0.000003 -0.000001 -0.000001 -0.000001 -0.000006 -0.032828 -0.025095 0.012286 0.000000 0.000000 -0.000004 0.000000 -0.000000 -0.000003 0.000003 -0.000004 -0.000001 -0.000002 0.000009 0.000001 -0.039192 -0.011488 0.008390 -0.000000 0.000001 0.000001 -0.000002 0.000006 -0.000003 -0.000000 -0.000000 -0.000000 -0.000000 -0.000001 -0.000000 -0.043421 0.002443 0.002844 -0.000001 -0.000001 -0.000001 -0.000005 0.000006 -0.000001 -0.000001 -0.000002 0.000002 0.000001 0.000006 0.000001 0.000000 0.000000 0.000000 -2.137656 0.700876 -8.723606 -99.255974 -0.669750 -4.820404 65.786593 0.374639 -3.780447 -0.000002 -0.000002 0.000002 -0.000001 0.000002 -0.000000 -0.000002 -0.000002 0.000002 -0.038000 -0.085200 0.016200 0.000003 0.000003 -0.000003 0.000000 0.000000 0.000000 -2.066542 0.690713 -7.490296 -106.355259 1.095034 9.867925 69.866954 1.838181 -18.891258 0.000003 0.000005 -0.000001 -0.000001 0.000000 -0.000001 0.000007 0.000003 -0.000000 0.038000 -0.085200 0.016200 -0.000003 0.000005 -0.000001 
0.009869 0.267697 -0.025294 81.777630 -26.558962 77.928852 0.000000 -0.000001 0.000001 -0.000002 -0.000001 0.000001 0.000001 -0.000001 0.000001 0.000003 -0.000001 0.000001 0.000924 0.155148 0.009274 8.208810 -0.012087 2.872343 0.019937 0.078966 0.057518 -15.391544 1.316189 35.024609 0.177025 -0.020465 -0.095062 -60.550160 30.555162 -65.658486 1.419279 -0.566012 -13.503393 -0.000002 -0.000001 -0.000000 0.021770 -0.038291 0.012954 0.000002 0.000001 -0.000006 -0.000001 -0.000001 0.000005 -0.000002 -0.000004 0.000008 -0.000001 0.000002 0.000002 -0.009090 -0.002348 -0.024223 0.000002 0.000000 0.000001 0.000001 -0.000000 0.000001 0.000000 0.000000 0.000004 0.032823 -0.025104 0.012281 0.000000 0.000001 0.000002 -0.000002 0.000001 0.000000 -0.000002 0.000002 -0.000000 -0.000002 -0.000003 0.000001 0.039230 -0.011402 0.008390 0.000001 0.000000 0.000003 0.000001 0.000000 0.000001 0.000001 0.000001 -0.000001 0.000000 -0.000002 -0.000001 0.043417 0.002450 0.002889 -0.000000 0.000002 -0.000002 0.000000 -0.000006 -0.000002 -0.000003 0.000000 0.000001 -0.000003 0.000003 0.000001 -0.016662 0.078956 0.057696 -0.321389 1.914267 -32.854245 -0.176972 -0.020537 -0.095144 -56.118996 -27.711119 67.109464 4.999447 -0.051585 24.746284 0.000000 0.000000 0.000000 -0.021773 -0.038278 0.012988 0.000001 0.000000 -0.000005 -0.000001 -0.000002 0.000006 -0.000002 0.000001 -0.000004 0.000001 0.000000 0.000003 0.009113 -0.002381 -0.024212 -0.000002 -0.000003 0.000004 -0.000002 -0.000003 0.000002 -0.000000 -0.000003 -0.000003 -0.032828 -0.025095 0.012286 0.000001 -0.000000 -0.000001 -0.000000 0.000000 0.000001 0.000001 -0.000003 -0.000001 -0.000002 0.000002 -0.000003 -0.039192 -0.011488 0.008390 -0.000000 0.000003 -0.000002 -0.000001 0.000001 -0.000002 0.000003 -0.000000 -0.000000 -0.000001 -0.000003 0.000001 -0.043421 0.002443 0.002844 0.000001 0.000004 -0.000005 -0.000003 0.000003 -0.000002 -0.000001 -0.000009 -0.000001 -0.000000 -0.000000 -0.000000 0.000000 0.000000 0.000000 -2.094267 0.582270 -7.482409 -98.000545 -0.734946 -5.667885 61.182847 0.063298 -0.636547 -0.000002 -0.000002 0.000001 -0.000002 -0.000001 0.000002 0.000000 -0.000002 0.000002 -0.038000 -0.085200 0.016200 -0.000001 -0.000000 0.000000 0.000000 0.000000 0.000000 -2.028633 0.574343 -6.248886 -102.746884 0.942958 7.773325 65.334728 1.700680 -17.429878 -0.000007 -0.000001 -0.000001 -0.000000 0.000001 -0.000001 0.000000 0.000000 0.000000 0.038000 -0.085200 0.016200 0.000001 -0.000002 0.000002 
